<?xml version="1.0" ?><svg id="Layer_1" style="enable-background:new 0 0 74 74;" version="1.1" viewBox="0 0 74 74" xml:space="preserve" xmlns="http://www.w3.org/2000/svg" xmlns:xlink="http://www.w3.org/1999/xlink"><style type="text/css">
	.st0{fill:#2B3033;}
</style><g><path class="st0" d="M53,2.1H21c-4.8,0-8.7,3.8-8.7,8.4v53c0,4.6,3.9,8.4,8.7,8.4h32c4.8,0,8.7-3.8,8.7-8.4v-53   C61.7,5.8,57.8,2.1,53,2.1z M21,6.1h32c2.6,0,4.7,2,4.7,4.4v1.3H16.3v-1.3C16.3,8.1,18.4,6.1,21,6.1z M53,67.9H21   c-2.6,0-4.7-2-4.7-4.4v-7.8h35c1.1,0,2-0.9,2-2s-0.9-2-2-2h-35V15.8h41.3v47.7C57.7,65.9,55.6,67.9,53,67.9z"/><path class="st0" d="M40.7,59.2h-7.5c-1.1,0-2,0.9-2,2s0.9,2,2,2h7.5c1.1,0,2-0.9,2-2S41.8,59.2,40.7,59.2z"/><path class="st0" d="M31.2,30.8c-0.4-0.5-0.9-0.8-1.5-1c-0.4-0.1-1.2-0.1-2.5-0.1h-2.9c-0.2,0-0.4,0.2-0.4,0.4v9   c0,0.2,0.2,0.4,0.4,0.4h1.2c0.2,0,0.4-0.2,0.4-0.4v-3.3h1.4c0.9,0,1.6-0.1,2.1-0.1c0.4-0.1,0.7-0.2,1.1-0.5c0.3-0.2,0.6-0.6,0.9-1   s0.3-0.9,0.3-1.5C31.8,31.9,31.6,31.3,31.2,30.8z M29.5,33.5c-0.2,0.2-0.4,0.4-0.7,0.5c-0.3,0.1-0.8,0.2-1.6,0.2h-1.1v-2.8h1   c0.7,0,1.2,0,1.5,0.1c0.3,0.1,0.6,0.2,0.8,0.4c0.2,0.2,0.3,0.5,0.3,0.9C29.7,33.1,29.6,33.3,29.5,33.5z"/><path class="st0" d="M37.7,30c-0.1-0.2-0.2-0.3-0.4-0.3h-1.6c-0.2,0-0.3,0.1-0.4,0.3l-3.6,9c-0.1,0.3,0.1,0.6,0.4,0.6h1.2   c0.2,0,0.4-0.1,0.4-0.3l0.7-2h4.1l0.8,2c0.1,0.2,0.2,0.3,0.4,0.3h1.3c0.3,0,0.5-0.3,0.4-0.6L37.7,30z M35.1,35.7l1.4-3.7l1.4,3.7   H35.1z"/><path class="st0" d="M49.2,29.7h-1.3c-0.2,0-0.3,0.1-0.4,0.2l-2.2,3.7L43,29.9c-0.1-0.1-0.2-0.2-0.4-0.2h-1.4   c-0.4,0-0.6,0.4-0.4,0.6l3.3,5.1v3.7c0,0.2,0.2,0.4,0.4,0.4h1.2c0.2,0,0.4-0.2,0.4-0.4v-3.7l3.3-5.1C49.7,30.1,49.5,29.7,49.2,29.7   z"/></g></svg>